<svg width="52" height="52" viewBox="0 0 52 52" fill="none" xmlns="http://www.w3.org/2000/svg">
<path d="M25.9998 36.6666C31.8907 36.6666 36.6665 31.8909 36.6665 26C36.6665 20.1089 31.8907 15.3333 25.9998 15.3333C20.1088 15.3333 15.3331 20.1089 15.3331 26C15.3331 31.8909 20.1088 36.6666 25.9998 36.6666Z" stroke="white" stroke-width="3" stroke-linecap="round" stroke-linejoin="round"/>
<path d="M2 36.6667V15.3333C2 7.96955 7.96955 2 15.3333 2H36.6667C44.0304 2 50 7.96955 50 15.3333V36.6667C50 44.0304 44.0304 50 36.6667 50H15.3333C7.96955 50 2 44.0304 2 36.6667Z" stroke="white" stroke-width="3"/>
<path d="M40.6667 11.36L40.6934 11.3304" stroke="white" stroke-width="3" stroke-linecap="round" stroke-linejoin="round"/>
</svg>
